<svg xmlns="http://www.w3.org/2000/svg" width="256" height="256" viewBox="0 0 100 100"><rect width="100" height="100" rx="20" fill="#000000"></rect><path d="M32.04 51.36L32.04 68.72Q32.04 70.16 31.20 71.12Q30.36 72.08 28.68 72.96L28.68 72.96Q26.68 73.92 23.16 74.64Q19.64 75.36 16.04 75.36L16.04 75.36Q10.44 75.36 5.80 73.84Q1.16 72.32-2.20 69.20Q-5.56 66.08-7.40 61.32Q-9.24 56.56-9.24 50.08L-9.24 50.08Q-9.24 43.68-7.32 38.88Q-5.40 34.08-2.08 30.92Q1.24 27.76 5.64 26.20Q10.04 24.64 15.00 24.64L15.00 24.64Q18.36 24.64 21.20 25.20Q24.04 25.76 26.04 26.68Q28.04 27.60 29.16 28.72Q30.28 29.84 30.28 30.96L30.28 30.96Q30.28 32.08 29.64 32.88Q29.00 33.68 28.12 34.08L28.12 34.08Q25.96 32.64 23.00 31.40Q20.04 30.16 15.40 30.16L15.40 30.16Q11.56 30.16 8.28 31.44Q5.00 32.72 2.60 35.20Q0.20 37.68-1.16 41.44Q-2.52 45.20-2.52 50.08L-2.52 50.08Q-2.52 55.28-1.12 59.00Q0.28 62.72 2.80 65.12Q5.32 67.52 8.72 68.68Q12.12 69.84 16.12 69.84L16.12 69.84Q19.00 69.84 21.56 69.36Q24.12 68.88 25.56 68.16L25.56 68.16L25.56 53.44L13.48 53.44Q13.24 53.04 13.00 52.36Q12.76 51.68 12.76 50.88L12.76 50.88Q12.76 49.52 13.40 48.76Q14.04 48.00 15.24 48.00L15.24 48.00L28.60 48.00Q30.04 48.00 31.04 48.92Q32.04 49.84 32.04 51.36L32.04 51.36ZM51.24 74.16L51.24 74.16Q50.84 74.32 50.04 74.52Q49.24 74.72 48.28 74.72L48.28 74.72Q44.76 74.72 44.76 71.76L44.76 71.76L44.76 25.84Q45.16 25.68 46.00 25.48Q46.84 25.28 47.80 25.28L47.80 25.28Q51.24 25.28 51.24 28.24L51.24 28.24L51.24 74.16ZM109.24 50.00L109.24 50.00Q109.24 56.24 107.48 61.00Q105.72 65.76 102.60 68.92Q99.48 72.08 95.24 73.72Q91 75.36 86.04 75.36L86.04 75.36Q81.08 75.36 76.84 73.72Q72.60 72.08 69.48 68.92Q66.36 65.76 64.60 61.00Q62.84 56.24 62.84 50.00L62.84 50.00Q62.84 43.76 64.64 39.04Q66.44 34.32 69.56 31.12Q72.68 27.92 76.92 26.28Q81.16 24.64 86.04 24.64L86.04 24.64Q90.92 24.64 95.16 26.28Q99.40 27.92 102.52 31.12Q105.64 34.32 107.44 39.04Q109.24 43.76 109.24 50.00ZM102.60 50.00L102.60 50.00Q102.60 40.40 98.08 35.28Q93.56 30.16 86.04 30.16L86.04 30.16Q82.28 30.16 79.24 31.48Q76.20 32.80 74.04 35.32Q71.88 37.84 70.72 41.52Q69.56 45.20 69.56 50.00L69.56 50.00Q69.56 59.60 74.04 64.72Q78.52 69.84 86.04 69.84L86.04 69.84Q93.64 69.84 98.12 64.72Q102.60 59.60 102.60 50.00Z" fill="#fff"></path></svg>